# Blender v2.70 (sub 0) OBJ File: 'NewMajaCircle00.blend'
# www.blender.org
mtllib NewMaJa00.mtl
o Circle_Circle.001
v 0.000000 1.000000 -0.250000
v -0.078459 0.996917 -0.250000
v -0.156434 0.987688 -0.250000
v -0.233445 0.972370 -0.250000
v -0.309017 0.951056 -0.250000
v -0.382683 0.923879 -0.250000
v -0.453990 0.891006 -0.250000
v -0.522498 0.852640 -0.250000
v -0.587785 0.809017 -0.250000
v -0.649448 0.760406 -0.250000
v -0.707107 0.707107 -0.250000
v -0.760406 0.649448 -0.250000
v -0.809017 0.587785 -0.250000
v -0.852640 0.522498 -0.250000
v -0.891007 0.453990 -0.250000
v -0.923880 0.382683 -0.250000
v -0.951057 0.309017 -0.250000
v -0.972370 0.233445 -0.250000
v -0.987688 0.156434 -0.250000
v -0.996917 0.078459 -0.250000
v -1.000000 -0.000001 -0.250000
v -0.996917 -0.078460 -0.250000
v -0.987688 -0.156435 -0.250000
v -0.972370 -0.233446 -0.250000
v -0.951056 -0.309018 -0.250000
v -0.923879 -0.382684 -0.250000
v -0.891006 -0.453991 -0.250000
v -0.852640 -0.522499 -0.250000
v -0.809017 -0.587786 -0.250000
v -0.760405 -0.649449 -0.250000
v -0.707106 -0.707107 -0.250000
v -0.649447 -0.760407 -0.250000
v -0.587785 -0.809018 -0.250000
v -0.522498 -0.852641 -0.250000
v -0.453990 -0.891007 -0.250000
v -0.382683 -0.923880 -0.250000
v -0.309016 -0.951057 -0.250000
v -0.233444 -0.972370 -0.250000
v -0.156433 -0.987689 -0.250000
v -0.078458 -0.996918 -0.250000
v 0.000001 -1.000000 -0.250000
v 0.078460 -0.996917 -0.250000
v 0.156436 -0.987688 -0.250000
v 0.233446 -0.972370 -0.250000
v 0.309018 -0.951056 -0.250000
v 0.382685 -0.923879 -0.250000
v 0.453992 -0.891006 -0.250000
v 0.522500 -0.852640 -0.250000
v 0.587786 -0.809016 -0.250000
v 0.649449 -0.760405 -0.250000
v 0.707108 -0.707106 -0.250000
v 0.760407 -0.649447 -0.250000
v 0.809018 -0.587784 -0.250000
v 0.852641 -0.522498 -0.250000
v 0.891007 -0.453990 -0.250000
v 0.923880 -0.382682 -0.250000
v 0.951057 -0.309016 -0.250000
v 0.972370 -0.233444 -0.250000
v 0.987689 -0.156433 -0.250000
v 0.996917 -0.078458 -0.250000
v 1.000000 0.000001 -0.250000
v 0.996917 0.078460 -0.250000
v 0.987688 0.156436 -0.250000
v 0.972370 0.233447 -0.250000
v 0.951056 0.309018 -0.250000
v 0.923879 0.382685 -0.250000
v 0.891006 0.453992 -0.250000
v 0.852639 0.522500 -0.250000
v 0.809016 0.587786 -0.250000
v 0.760405 0.649449 -0.250000
v 0.707106 0.707108 -0.250000
v 0.649447 0.760407 -0.250000
v 0.587784 0.809018 -0.250000
v 0.522497 0.852641 -0.250000
v 0.453989 0.891007 -0.250000
v 0.382682 0.923880 -0.250000
v 0.309015 0.951057 -0.250000
v 0.233443 0.972370 -0.250000
v 0.156432 0.987688 -0.250000
v 0.078457 0.996917 -0.250000
v 0.078457 0.996917 0.250000
v 0.156432 0.987688 0.250000
v 0.233443 0.972370 0.250000
v 0.309015 0.951057 0.250000
v 0.382682 0.923880 0.250000
v 0.453989 0.891007 0.250000
v 0.522497 0.852641 0.250000
v 0.587784 0.809018 0.250000
v 0.649447 0.760407 0.250000
v 0.707106 0.707107 0.250000
v 0.760405 0.649449 0.250000
v 0.809016 0.587786 0.250000
v 0.852639 0.522499 0.250000
v 0.891006 0.453991 0.250000
v 0.923879 0.382684 0.250000
v 0.951056 0.309018 0.250000
v 0.972370 0.233446 0.250000
v 0.987688 0.156435 0.250000
v 0.996917 0.078460 0.250000
v 1.000000 0.000001 0.250000
v 0.996917 -0.078458 0.250000
v 0.987689 -0.156434 0.250000
v 0.972370 -0.233445 0.250000
v 0.951057 -0.309016 0.250000
v 0.923880 -0.382683 0.250000
v 0.891007 -0.453990 0.250000
v 0.852641 -0.522498 0.250000
v 0.809018 -0.587785 0.250000
v 0.760407 -0.649448 0.250000
v 0.707108 -0.707106 0.250000
v 0.649449 -0.760406 0.250000
v 0.587786 -0.809017 0.250000
v 0.522500 -0.852640 0.250000
v 0.453992 -0.891007 0.250000
v 0.382685 -0.923880 0.250000
v 0.309018 -0.951057 0.250000
v 0.233446 -0.972370 0.250000
v 0.156436 -0.987689 0.250000
v 0.078460 -0.996918 0.250000
v 0.000001 -1.000000 0.250000
v -0.078458 -0.996918 0.250000
v -0.156433 -0.987689 0.250000
v -0.233444 -0.972371 0.250000
v -0.309016 -0.951057 0.250000
v -0.382683 -0.923880 0.250000
v -0.453990 -0.891007 0.250000
v -0.522498 -0.852641 0.250000
v -0.587785 -0.809018 0.250000
v -0.649447 -0.760407 0.250000
v -0.707106 -0.707108 0.250000
v -0.760405 -0.649449 0.250000
v -0.809017 -0.587786 0.250000
v -0.852640 -0.522500 0.250000
v -0.891006 -0.453992 0.250000
v -0.923879 -0.382684 0.250000
v -0.951056 -0.309018 0.250000
v -0.972370 -0.233446 0.250000
v -0.987688 -0.156435 0.250000
v -0.996917 -0.078460 0.250000
v -1.000000 -0.000001 0.250000
v -0.996917 0.078458 0.250000
v -0.987688 0.156434 0.250000
v -0.972370 0.233445 0.250000
v -0.951057 0.309016 0.250000
v -0.923880 0.382683 0.250000
v -0.891007 0.453990 0.250000
v -0.852640 0.522498 0.250000
v -0.809017 0.587785 0.250000
v -0.760406 0.649447 0.250000
v -0.707107 0.707106 0.250000
v -0.649448 0.760405 0.250000
v -0.587785 0.809016 0.250000
v -0.522498 0.852640 0.250000
v -0.453990 0.891006 0.250000
v -0.382683 0.923879 0.250000
v -0.309017 0.951056 0.250000
v -0.233445 0.972369 0.250000
v -0.156434 0.987688 0.250000
v -0.078459 0.996917 0.250000
v 0.000000 0.999999 0.250000
vt 0.225767 0.014590
vt 0.236903 0.020264
vt 0.247558 0.026794
vt 0.257669 0.034139
vt 0.267172 0.042255
vt 0.276009 0.051092
vt 0.284126 0.060596
vt 0.291472 0.070707
vt 0.298002 0.081362
vt 0.303675 0.092497
vt 0.308458 0.104043
vt 0.312320 0.115929
vt 0.315237 0.128082
vt 0.317192 0.140426
vt 0.318173 0.152885
vt 0.318173 0.165382
vt 0.317193 0.177841
vt 0.315237 0.190184
vt 0.312320 0.202336
vt 0.308458 0.214223
vt 0.303675 0.225769
vt 0.298001 0.236904
vt 0.291471 0.247560
vt 0.284126 0.257671
vt 0.276010 0.267173
vt 0.267173 0.276010
vt 0.257670 0.284126
vt 0.247559 0.291472
vt 0.236903 0.298002
vt 0.225768 0.303676
vt 0.214221 0.308459
vt 0.202335 0.312321
vt 0.190184 0.315238
vt 0.177840 0.317193
vt 0.165382 0.318174
vt 0.152885 0.318174
vt 0.140425 0.317193
vt 0.128081 0.315238
vt 0.115930 0.312321
vt 0.104045 0.308460
vt 0.092499 0.303677
vt 0.081364 0.298003
vt 0.070708 0.291474
vt 0.060597 0.284128
vt 0.051093 0.276010
vt 0.042256 0.267173
vt 0.034139 0.257670
vt 0.026794 0.247560
vt 0.020263 0.236903
vt 0.014590 0.225768
vt 0.009807 0.214221
vt 0.005945 0.202335
vt 0.003027 0.190183
vt 0.001072 0.177839
vt 0.000092 0.165380
vt 0.000092 0.152883
vt 0.001072 0.140424
vt 0.003028 0.128081
vt 0.005945 0.115929
vt 0.009807 0.104043
vt 0.014590 0.092497
vt 0.020263 0.081362
vt 0.026793 0.070705
vt 0.034139 0.060595
vt 0.042256 0.051092
vt 0.051093 0.042254
vt 0.060597 0.034138
vt 0.070708 0.026792
vt 0.081364 0.020262
vt 0.092498 0.014588
vt 0.104044 0.009806
vt 0.115929 0.005945
vt 0.128081 0.003027
vt 0.140424 0.001072
vt 0.152883 0.000092
vt 0.165380 0.000092
vt 0.177839 0.001072
vt 0.190182 0.003027
vt 0.202334 0.005945
vt 0.214220 0.009807
vt 0.236903 0.616267
vt 0.225768 0.621941
vt 0.214221 0.626724
vt 0.202337 0.630585
vt 0.190183 0.633503
vt 0.177840 0.635458
vt 0.165382 0.636438
vt 0.152884 0.636438
vt 0.140425 0.635458
vt 0.128082 0.633503
vt 0.115930 0.630585
vt 0.104044 0.626724
vt 0.092498 0.621941
vt 0.081362 0.616267
vt 0.070706 0.609737
vt 0.060596 0.602391
vt 0.051092 0.594275
vt 0.042255 0.585437
vt 0.034138 0.575934
vt 0.026792 0.565822
vt 0.020262 0.555166
vt 0.014589 0.544031
vt 0.009806 0.532485
vt 0.005945 0.520599
vt 0.003027 0.508447
vt 0.001072 0.496104
vt 0.000092 0.483646
vt 0.000092 0.471149
vt 0.001072 0.458691
vt 0.003027 0.446347
vt 0.005945 0.434195
vt 0.009806 0.422311
vt 0.014589 0.410765
vt 0.020262 0.399630
vt 0.026792 0.388974
vt 0.034137 0.378864
vt 0.042254 0.369360
vt 0.051092 0.360522
vt 0.060595 0.352405
vt 0.070707 0.345059
vt 0.081363 0.338529
vt 0.092499 0.332855
vt 0.104045 0.328072
vt 0.115931 0.324210
vt 0.128083 0.321293
vt 0.140426 0.319338
vt 0.152886 0.318358
vt 0.165383 0.318358
vt 0.177843 0.319338
vt 0.190187 0.321294
vt 0.202339 0.324211
vt 0.214225 0.328073
vt 0.225770 0.332856
vt 0.236905 0.338529
vt 0.247561 0.345060
vt 0.257671 0.352405
vt 0.267174 0.360522
vt 0.276011 0.369359
vt 0.284128 0.378862
vt 0.291473 0.388972
vt 0.298003 0.399628
vt 0.303677 0.410763
vt 0.308459 0.422310
vt 0.312321 0.434196
vt 0.315239 0.446348
vt 0.317194 0.458691
vt 0.318174 0.471150
vt 0.318174 0.483647
vt 0.317193 0.496107
vt 0.315238 0.508450
vt 0.312321 0.520602
vt 0.308459 0.532488
vt 0.303676 0.544034
vt 0.298002 0.555169
vt 0.291472 0.565825
vt 0.284127 0.575936
vt 0.276010 0.585439
vt 0.267173 0.594276
vt 0.257670 0.602392
vt 0.247559 0.609738
vt 0.749454 0.716391
vt 0.736933 0.716390
vt 0.736931 0.636664
vt 0.749452 0.636662
vt 0.212046 0.716103
vt 0.199574 0.716096
vt 0.199602 0.636679
vt 0.212073 0.636681
vt 0.561704 0.716338
vt 0.549195 0.716331
vt 0.549215 0.636692
vt 0.561722 0.636691
vt 0.486675 0.716285
vt 0.474179 0.716275
vt 0.474209 0.636699
vt 0.486706 0.636698
vt 0.025024 0.716013
vt 0.012558 0.716008
vt 0.012592 0.636628
vt 0.025057 0.636633
vt 0.837110 0.716391
vt 0.824587 0.716392
vt 0.824582 0.636652
vt 0.837104 0.636651
vt 0.299370 0.716153
vt 0.286892 0.716145
vt 0.286920 0.636690
vt 0.299398 0.636692
vt 0.649298 0.716374
vt 0.636782 0.716370
vt 0.636789 0.636679
vt 0.649304 0.636677
vt 0.112289 0.716053
vt 0.099822 0.716047
vt 0.099852 0.636657
vt 0.112319 0.636661
vt 0.386743 0.716210
vt 0.374257 0.716201
vt 0.374287 0.636697
vt 0.386773 0.636698
vt 0.924771 0.716386
vt 0.912248 0.716387
vt 0.912242 0.636643
vt 0.924765 0.636642
vt 0.724412 0.716389
vt 0.724411 0.636666
vt 0.187103 0.716090
vt 0.187131 0.636677
vt 0.536687 0.716323
vt 0.536710 0.636694
vt 0.461683 0.716265
vt 0.461714 0.636699
vt 0.000092 0.716002
vt 0.000128 0.636622
vt 0.812064 0.716392
vt 0.812060 0.636654
vt 0.274415 0.716138
vt 0.274443 0.636689
vt 0.624266 0.716366
vt 0.624275 0.636681
vt 0.087355 0.716042
vt 0.087385 0.636654
vt 0.361773 0.716193
vt 0.361803 0.636697
vt 0.899725 0.716388
vt 0.899719 0.636644
vt 0.711892 0.716387
vt 0.711892 0.636667
vt 0.174633 0.716083
vt 0.174661 0.636675
vt 0.524181 0.716314
vt 0.524206 0.636695
vt 0.449190 0.716256
vt 0.449220 0.636699
vt 0.999908 0.716380
vt 0.987385 0.716381
vt 0.987380 0.636637
vt 0.999902 0.636636
vt 0.799542 0.716392
vt 0.799538 0.636655
vt 0.261940 0.716130
vt 0.261968 0.636688
vt 0.611751 0.716361
vt 0.611762 0.636683
vt 0.074888 0.716036
vt 0.074919 0.636650
vt 0.887202 0.716388
vt 0.887195 0.636645
vt 0.349290 0.716184
vt 0.349319 0.636696
vt 0.699372 0.716385
vt 0.699373 0.636669
vt 0.162163 0.716077
vt 0.162191 0.636672
vt 0.511677 0.716305
vt 0.511704 0.636696
vt 0.974862 0.716381
vt 0.974857 0.636638
vt 0.436697 0.716246
vt 0.436728 0.636699
vt 0.787020 0.716392
vt 0.787016 0.636657
vt 0.249465 0.716123
vt 0.249493 0.636686
vt 0.599238 0.716356
vt 0.599250 0.636685
vt 0.062422 0.716030
vt 0.062453 0.636646
vt 0.336808 0.716176
vt 0.336837 0.636695
vt 0.874678 0.716389
vt 0.874673 0.636646
vt 0.686852 0.716383
vt 0.686855 0.636671
vt 0.149694 0.716071
vt 0.149722 0.636670
vt 0.499174 0.716296
vt 0.499204 0.636697
vt 0.424207 0.716237
vt 0.424237 0.636699
vt 0.962340 0.716382
vt 0.962334 0.636639
vt 0.774497 0.716392
vt 0.774494 0.636658
vt 0.236991 0.716116
vt 0.237019 0.636685
vt 0.586725 0.716351
vt 0.586739 0.636687
vt 0.049956 0.716025
vt 0.049988 0.636642
vt 0.324328 0.716168
vt 0.324356 0.636694
vt 0.862155 0.716390
vt 0.862149 0.636648
vt 0.674334 0.716380
vt 0.674337 0.636673
vt 0.137225 0.716065
vt 0.137254 0.636667
vt 0.411717 0.716228
vt 0.411747 0.636699
vt 0.949817 0.716383
vt 0.949811 0.636640
vt 0.761976 0.716392
vt 0.761973 0.636660
vt 0.224518 0.716109
vt 0.224546 0.636683
vt 0.574214 0.716344
vt 0.574230 0.636689
vt 0.037489 0.716019
vt 0.037522 0.636637
vt 0.311848 0.716160
vt 0.311877 0.636693
vt 0.849632 0.716391
vt 0.849627 0.636649
vt 0.661816 0.716377
vt 0.661820 0.636675
vt 0.124757 0.716059
vt 0.124786 0.636664
vt 0.399229 0.716219
vt 0.399259 0.636699
vt 0.937294 0.716384
vt 0.937288 0.636641
vn 0.000000 0.000000 -1.000000
vn -0.000000 0.000000 1.000000
vn 0.999229 0.039260 0.000000
vn -0.962455 -0.271441 -0.000000
vn 0.346115 0.938192 0.000001
vn -0.117537 0.993069 0.000001
vn -0.117537 -0.993069 -0.000001
vn 0.872497 -0.488620 -0.000000
vn -0.962455 0.271440 0.000000
vn 0.785316 0.619095 0.000000
vn -0.619093 -0.785317 -0.000001
vn -0.678801 0.734322 0.000001
vn 0.488623 -0.872495 -0.000001
vn 0.993068 0.117539 0.000000
vn -0.938191 -0.346118 -0.000000
vn 0.271438 0.962456 0.000001
vn -0.195091 0.980785 0.000001
vn -0.039258 -0.999229 -0.000001
vn 0.908144 -0.418659 -0.000000
vn -0.980785 0.195091 0.000000
vn 0.734321 0.678802 0.000000
vn -0.555569 -0.831470 -0.000001
vn -0.734322 0.678801 0.000000
vn 0.555571 -0.831469 -0.000001
vn 0.980785 0.195092 0.000000
vn -0.908143 -0.418661 -0.000000
vn 0.195088 0.980786 0.000001
vn -0.271440 0.962455 0.000001
vn 0.039260 -0.999229 -0.000001
vn 0.938192 -0.346115 -0.000000
vn -0.993069 0.117537 0.000000
vn 0.678800 0.734324 0.000001
vn -0.488621 -0.872496 -0.000001
vn 0.619095 -0.785316 -0.000001
vn -0.785317 0.619094 0.000000
vn 0.962455 0.271442 0.000000
vn -0.872496 -0.488621 -0.000000
vn 0.117535 0.993069 0.000001
vn 0.117538 -0.993068 -0.000001
vn -0.346118 0.938191 0.000001
vn 0.962456 -0.271439 -0.000000
vn -0.999229 0.039259 0.000000
vn 0.619092 0.785318 0.000001
vn -0.418659 -0.908144 -0.000001
vn -0.831469 0.555570 0.000000
vn 0.678802 -0.734321 -0.000000
vn 0.938191 0.346118 0.000000
vn -0.831469 -0.555571 -0.000000
vn 0.039259 0.999229 0.000001
vn -0.418659 0.908143 0.000001
vn 0.195091 -0.980785 -0.000001
vn 0.980786 -0.195089 -0.000000
vn -0.999229 -0.039260 -0.000000
vn 0.555569 0.831471 0.000001
vn -0.346116 -0.938192 -0.000001
vn -0.872496 0.488621 0.000000
vn 0.734323 -0.678800 -0.000001
vn 0.908142 0.418661 0.000000
vn -0.785317 -0.619094 -0.000000
vn -0.488622 0.872496 0.000001
vn 0.271441 -0.962455 -0.000001
vn 0.993069 -0.117536 -0.000000
vn -0.993068 -0.117538 -0.000000
vn 0.488619 0.872497 0.000001
vn -0.271440 -0.962455 -0.000001
vn -0.908143 0.418659 0.000000
vn 0.785317 -0.619093 -0.000000
vn 0.872495 0.488622 0.000000
vn -0.734322 -0.678801 -0.000000
vn -0.555570 0.831470 0.000001
vn 0.346118 -0.938191 -0.000001
vn 0.999229 -0.039258 -0.000000
vn -0.980785 -0.195091 -0.000000
vn 0.418658 0.908144 0.000001
vn -0.039260 0.999229 0.000001
vn -0.195089 -0.980785 -0.000001
vn 0.831470 -0.555569 -0.000000
vn -0.938191 0.346117 0.000000
vn 0.831468 0.555572 0.000000
vn -0.678800 -0.734323 -0.000000
vn -0.619094 0.785317 0.000001
vn 0.418661 -0.908143 -0.000001
usemtl Material.001
s off
f 2/1/1 1/2/1 80/3/1 79/4/1 78/5/1 77/6/1 76/7/1 75/8/1 74/9/1 73/10/1 72/11/1 71/12/1 70/13/1 69/14/1 68/15/1 67/16/1 66/17/1 65/18/1 64/19/1 63/20/1 62/21/1 61/22/1 60/23/1 59/24/1 58/25/1 57/26/1 56/27/1 55/28/1 54/29/1 53/30/1 52/31/1 51/32/1 50/33/1 49/34/1 48/35/1 47/36/1 46/37/1 45/38/1 44/39/1 43/40/1 42/41/1 41/42/1 40/43/1 39/44/1 38/45/1 37/46/1 36/47/1 35/48/1 34/49/1 33/50/1 32/51/1 31/52/1 30/53/1 29/54/1 28/55/1 27/56/1 26/57/1 25/58/1 24/59/1 23/60/1 22/61/1 21/62/1 20/63/1 19/64/1 18/65/1 17/66/1 16/67/1 15/68/1 14/69/1 13/70/1 12/71/1 11/72/1 10/73/1 9/74/1 8/75/1 7/76/1 6/77/1 5/78/1 4/79/1 3/80/1
f 159/81/2 158/82/2 157/83/2 156/84/2 155/85/2 154/86/2 153/87/2 152/88/2 151/89/2 150/90/2 149/91/2 148/92/2 147/93/2 146/94/2 145/95/2 144/96/2 143/97/2 142/98/2 141/99/2 140/100/2 139/101/2 138/102/2 137/103/2 136/104/2 135/105/2 134/106/2 133/107/2 132/108/2 131/109/2 130/110/2 129/111/2 128/112/2 127/113/2 126/114/2 125/115/2 124/116/2 123/117/2 122/118/2 121/119/2 120/120/2 119/121/2 118/122/2 117/123/2 116/124/2 115/125/2 114/126/2 113/127/2 112/128/2 111/129/2 110/130/2 109/131/2 108/132/2 107/133/2 106/134/2 105/135/2 104/136/2 103/137/2 102/138/2 101/139/2 100/140/2 99/141/2 98/142/2 97/143/2 96/144/2 95/145/2 94/146/2 93/147/2 92/148/2 91/149/2 90/150/2 89/151/2 88/152/2 87/153/2 86/154/2 85/155/2 84/156/2 83/157/2 82/158/2 81/159/2 160/160/2
f 61/161/3 62/162/3 99/163/3 100/164/3
f 24/165/4 25/166/4 136/167/4 137/168/4
f 76/169/5 77/170/5 84/171/5 85/172/5
f 2/173/6 3/174/6 158/175/6 159/176/6
f 39/177/7 40/178/7 121/179/7 122/180/7
f 54/181/8 55/182/8 106/183/8 107/184/8
f 17/185/9 18/186/9 143/187/9 144/188/9
f 69/189/10 70/190/10 91/191/10 92/192/10
f 32/193/11 33/194/11 128/195/11 129/196/11
f 10/197/12 11/198/12 150/199/12 151/200/12
f 47/201/13 48/202/13 113/203/13 114/204/13
f 62/162/14 63/205/14 98/206/14 99/163/14
f 25/166/15 26/207/15 135/208/15 136/167/15
f 77/170/16 78/209/16 83/210/16 84/171/16
f 3/174/17 4/211/17 157/212/17 158/175/17
f 40/178/18 41/213/18 120/214/18 121/179/18
f 55/182/19 56/215/19 105/216/19 106/183/19
f 18/186/20 19/217/20 142/218/20 143/187/20
f 70/190/21 71/219/21 90/220/21 91/191/21
f 33/194/22 34/221/22 127/222/22 128/195/22
f 11/198/23 12/223/23 149/224/23 150/199/23
f 48/202/24 49/225/24 112/226/24 113/203/24
f 63/205/25 64/227/25 97/228/25 98/206/25
f 26/207/26 27/229/26 134/230/26 135/208/26
f 78/209/27 79/231/27 82/232/27 83/210/27
f 4/211/28 5/233/28 156/234/28 157/212/28
f 41/235/29 42/236/29 119/237/29 120/238/29
f 56/215/30 57/239/30 104/240/30 105/216/30
f 19/217/31 20/241/31 141/242/31 142/218/31
f 71/219/32 72/243/32 89/244/32 90/220/32
f 34/221/33 35/245/33 126/246/33 127/222/33
f 49/225/34 50/247/34 111/248/34 112/226/34
f 12/223/35 13/249/35 148/250/35 149/224/35
f 64/227/36 65/251/36 96/252/36 97/228/36
f 27/229/37 28/253/37 133/254/37 134/230/37
f 79/231/38 80/255/38 81/256/38 82/232/38
f 42/236/39 43/257/39 118/258/39 119/237/39
f 5/233/40 6/259/40 155/260/40 156/234/40
f 57/239/41 58/261/41 103/262/41 104/240/41
f 20/241/42 21/263/42 140/264/42 141/242/42
f 72/243/43 73/265/43 88/266/43 89/244/43
f 35/245/44 36/267/44 125/268/44 126/246/44
f 13/249/45 14/269/45 147/270/45 148/250/45
f 50/247/46 51/271/46 110/272/46 111/248/46
f 65/251/47 66/273/47 95/274/47 96/252/47
f 28/253/48 29/275/48 132/276/48 133/254/48
f 80/255/49 1/277/49 160/278/49 81/256/49
f 6/259/50 7/279/50 154/280/50 155/260/50
f 43/257/51 44/281/51 117/282/51 118/258/51
f 58/261/52 59/283/52 102/284/52 103/262/52
f 21/263/53 22/285/53 139/286/53 140/264/53
f 73/265/54 74/287/54 87/288/54 88/266/54
f 36/267/55 37/289/55 124/290/55 125/268/55
f 14/269/56 15/291/56 146/292/56 147/270/56
f 51/271/57 52/293/57 109/294/57 110/272/57
f 66/273/58 67/295/58 94/296/58 95/274/58
f 29/275/59 30/297/59 131/298/59 132/276/59
f 7/279/60 8/299/60 153/300/60 154/280/60
f 44/281/61 45/301/61 116/302/61 117/282/61
f 59/283/62 60/303/62 101/304/62 102/284/62
f 22/285/63 23/305/63 138/306/63 139/286/63
f 74/287/64 75/307/64 86/308/64 87/288/64
f 37/289/65 38/309/65 123/310/65 124/290/65
f 15/291/66 16/311/66 145/312/66 146/292/66
f 52/293/67 53/313/67 108/314/67 109/294/67
f 67/295/68 68/315/68 93/316/68 94/296/68
f 30/297/69 31/317/69 130/318/69 131/298/69
f 8/299/70 9/319/70 152/320/70 153/300/70
f 45/301/71 46/321/71 115/322/71 116/302/71
f 60/303/72 61/161/72 100/164/72 101/304/72
f 23/305/73 24/165/73 137/168/73 138/306/73
f 75/307/74 76/169/74 85/172/74 86/308/74
f 1/277/75 2/173/75 159/176/75 160/278/75
f 38/309/76 39/177/76 122/180/76 123/310/76
f 53/313/77 54/181/77 107/184/77 108/314/77
f 16/311/78 17/185/78 144/188/78 145/312/78
f 68/315/79 69/189/79 92/192/79 93/316/79
f 31/317/80 32/193/80 129/196/80 130/318/80
f 9/319/81 10/197/81 151/200/81 152/320/81
f 46/321/82 47/201/82 114/204/82 115/322/82
