# Blender v2.70 (sub 0) OBJ File: 'NewMajaCircle03.blend'
# www.blender.org
mtllib NewMajaCircle03.mtl
o Circle_Circle.001
v 0.000000 1.750000 0.000000
v -0.137303 1.744605 0.000000
v -0.273760 1.728454 0.000000
v 0.273757 1.728455 0.000000
v 0.137300 1.744605 0.000000
v 0.000000 1.500000 0.000000
v -0.117689 1.495376 0.000000
v -0.234652 1.481533 0.000000
v 0.117686 1.495376 -0.500000
v 0.234649 1.481533 -0.500000
v -0.234652 1.481533 -0.500000
v -0.117689 1.495376 -0.500000
v 0.000000 1.500000 -0.500000
v 0.137300 1.744605 -0.500000
v 0.273757 1.728455 -0.500000
v -0.273760 1.728454 -0.500000
v -0.137303 1.744605 -0.500000
v 0.000000 1.750000 -0.500000
v 0.234649 1.481533 0.000000
v 0.117686 1.495376 0.000000
vt 0.500539 0.499518
vt 0.414399 0.497890
vt 0.326885 0.494043
vt 0.344697 0.330648
vt 0.422805 0.334794
vt 0.502059 0.336871
vt 0.581435 0.336949
vt 0.659637 0.334248
vt 0.674756 0.496820
vt 0.586729 0.499135
vt 0.499307 0.809667
vt 0.585147 0.811777
vt 0.671894 0.816160
vt 0.652402 0.977470
vt 0.575908 0.970701
vt 0.498938 0.968814
vt 0.421539 0.971016
vt 0.343940 0.977469
vt 0.325092 0.813847
vt 0.413242 0.810263
vt 0.507098 0.003348
vt 0.584084 0.004359
vt 0.660941 0.004872
vt 0.352158 0.000099
vt 0.430021 0.001856
vt 0.000099 0.458419
vt 0.017910 0.295025
vt 0.984782 0.304010
vt 0.999901 0.466582
vn 0.000000 0.000000 1.000000
vn 0.000000 0.000000 -1.000000
vn 0.039259 0.999229 0.000000
vn 0.117535 0.993069 0.000000
vn -0.117537 0.993069 0.000000
vn -0.039260 0.999229 0.000000
vn -0.039259 -0.999229 0.000000
vn -0.117535 -0.993069 0.000000
vn 0.117537 -0.993069 0.000000
vn 0.039260 -0.999229 0.000000
vn -0.987688 -0.156435 0.000000
vn 0.987689 -0.156433 0.000000
usemtl Material
s off
f 1/1/1 2/2/1 3/3/1 8/4/1 7/5/1 6/6/1 20/7/1 19/8/1 4/9/1 5/10/1
f 18/11/2 14/12/2 15/13/2 10/14/2 9/15/2 13/16/2 12/17/2 11/18/2 16/19/2 17/20/2
f 1/1/3 5/10/3 14/12/3 18/11/3
f 5/10/4 4/9/4 15/13/4 14/12/4
f 3/3/5 2/2/5 17/20/5 16/19/5
f 2/2/6 1/1/6 18/11/6 17/20/6
f 20/7/7 6/6/7 13/21/7 9/22/7
f 19/8/8 20/7/8 9/22/8 10/23/8
f 7/5/9 8/4/9 11/24/9 12/25/9
f 6/6/10 7/5/10 12/25/10 13/21/10
f 8/4/11 3/3/11 16/26/11 11/27/11
f 4/9/12 19/8/12 10/28/12 15/29/12
